<?xml version="1.0" encoding="UTF-8" standalone="no"?>
<!DOCTYPE svg PUBLIC "-//W3C//DTD SVG 1.1//EN" "http://www.w3.org/Graphics/SVG/1.1/DTD/svg11.dtd">
<svg version="1.1" xmlns="http://www.w3.org/2000/svg" xmlns:xlink="http://www.w3.org/1999/xlink" width="1792" height="1063" viewBox="-992 -32 1792 1063" id="ccdiagram"><defs><style type="text/css">@import url('https://fonts.googleapis.com/css?family=Open+Sans:400,700|Inconsolata:400');</style></defs><g>0<g pointer-events="auto"/>0<g pointer-events="auto"/><g/><g pointer-events="auto"/><g/><g pointer-events="auto"/><g pointer-events="none"/><g pointer-events="auto"/><g pointer-events="auto"><g opacity="1"><g id="7765decf-deaf-4025-bec7-35315c908d43" transform="translate(0 0)"><g><polygon points="-288 19, 64 222, -288 426, -640 222" fill="#3c3c3c"/><polygon points="-640 370, -288 574, -288 426, -640 222" fill="#232323" stroke="#000"/><polygon points="-288 574, 64 370, 64 222, -288 426" fill="#090909" stroke="#000"/><polygon points="-288 19, -640 222, -640 370, -288 574, 64 370, 64 222" fill="none" stroke="#000000" stroke-width="2"/></g></g></g><g opacity="1"><g id="aaa02dfb-1d22-4741-8d09-2d7dc1033302" transform="translate(0 0)"><g><polygon points="400 416, 752 620, 400 823, 48 620" fill="#3c3c3c"/><polygon points="48 768, 400 971, 400 823, 48 620" fill="#232323" stroke="#000"/><polygon points="400 971, 752 768, 752 620, 400 823" fill="#090909" stroke="#000"/><polygon points="400 416, 48 620, 48 768, 400 971, 752 768, 752 620" fill="none" stroke="#000000" stroke-width="2"/></g></g></g><g opacity="1"><g id="16d9ba0f-b352-43b3-ad76-c27af7b4dcca" transform="translate(0 0)"><g><polygon points="-384 -222, -160 -92, -224 -55, -448 -185" fill="#fff"/><polygon points="-448 185, -224 315, -224 -55, -448 -185" fill="#e6e6e6" stroke="#999"/><polygon points="-224 315, -160 278, -160 -92, -224 -55" fill="#ccc" stroke="#999"/><polygon points="-384 -222, -448 -185, -448 185, -224 315, -160 278, -160 -92" fill="none" stroke="#000000" stroke-width="2"/></g></g></g><g opacity="1"><g id="036815ad-bbca-462e-8974-f9efd5f67004" transform="translate(0 0)"><g><polygon points="304 398, 528 527, 464 564, 240 435" fill="#fff"/><polygon points="240 583, 464 712, 464 564, 240 435" fill="#e6e6e6" stroke="#999"/><polygon points="464 712, 528 675, 528 527, 464 564" fill="#ccc" stroke="#999"/><polygon points="304 398, 240 435, 240 583, 464 712, 528 675, 528 527" fill="none" stroke="#000000" stroke-width="2"/></g></g></g><g opacity="1"><g id="714430d7-44a5-468b-99ed-c795a4915d04" transform="translate(0 0)"><g><polygon points="-480 -166, -256 -37, -320 0, -544 -129" fill="#fff"/><polygon points="-544 241, -320 370, -320 0, -544 -129" fill="#e6e6e6" stroke="#999"/><polygon points="-320 370, -256 333, -256 -37, -320 0" fill="#ccc" stroke="#999"/><polygon points="-480 -166, -544 -129, -544 241, -320 370, -256 333, -256 -37" fill="none" stroke="#000000" stroke-width="2"/></g></g></g><g opacity="1"><g id="4c32f83f-44de-4a90-b255-b2b865f4b280" transform="translate(0 0)"><g><polygon points="208 453, 432 583, 368 620, 144 490" fill="#fff"/><polygon points="144 638, 368 768, 368 620, 144 490" fill="#e6e6e6" stroke="#999"/><polygon points="368 768, 432 731, 432 583, 368 620" fill="#ccc" stroke="#999"/><polygon points="208 453, 144 490, 144 638, 368 768, 432 731, 432 583" fill="none" stroke="#000000" stroke-width="2"/></g></g></g></g><g pointer-events="auto"><g opacity="1"><g id="65e17bcc-943d-4c0f-a0aa-c5af5ede3228" transform="translate(0 0)"><svg x="-640" y="574" overflow="visible"><g transform="scale(1.415) matrix(0.707 0.409 -0.707 0.409 0 0)"><svg x="-128" y="-128" overflow="visible"><image xlink:href="https://images.cloudcraft.co/f8795510-4928-4ba1-b8f0-8873354a19c5/VMware-Workstation-Player.png" width="256" height="256"/></svg></g></svg></g></g><g opacity="1"><g id="1f22c1be-4446-48d6-838c-565a0eccf98b" transform="translate(0 0)"><svg x="64" y="981" overflow="visible"><g transform="scale(0.9905000000000002) matrix(0.707 0.409 -0.707 0.409 0 0)"><svg x="-396" y="-134.5" overflow="visible"><image xlink:href="https://images.cloudcraft.co/f8795510-4928-4ba1-b8f0-8873354a19c5/docker_logo.png" width="792" height="269"/></svg></g></svg></g></g></g><g pointer-events="auto"/><g pointer-events="auto"><g opacity="1"><g id="3451985a-5f24-4a57-a7eb-3210c4cd3f9e" transform="translate(0 0)"><svg x="-224" y="426" overflow="visible"><text stroke="#ffffff" stroke-width="4" font-family="Open Sans" y="71.84" font-size="56pt" fill="#673ab7" font-weight="bold" transform="matrix(0.707, -0.409, 0, 0.816, 0, 0)" xml:space="preserve"><tspan x="8" dy="0">HOST OS</tspan></text><text font-family="Open Sans" y="71.84" font-size="56pt" fill="#673ab7" font-weight="bold" transform="matrix(0.707, -0.409, 0, 0.816, 0, 0)" xml:space="preserve"><tspan x="8" dy="0">HOST OS</tspan></text></svg></g></g><g opacity="1"><g id="3e37467a-76ae-4173-a916-31bb612207c2" transform="translate(0 0)"><svg x="-480" y="-166" overflow="visible"><text stroke="#ffffff" stroke-width="4" font-family="Open Sans" y="59.3" font-size="45pt" fill="#e91e63" font-weight="bold" transform="matrix(0.707 0.409 -0.707 0.409 0 0)" xml:space="preserve"><tspan x="8" dy="0">GUEST OS</tspan></text><text font-family="Open Sans" y="59.3" font-size="45pt" fill="#e91e63" font-weight="bold" transform="matrix(0.707 0.409 -0.707 0.409 0 0)" xml:space="preserve"><tspan x="8" dy="0">GUEST OS</tspan></text></svg></g></g><g opacity="1"><g id="4b6fe419-0fa3-4120-be1e-acf707858eed" transform="translate(0 0)"><svg x="-624" y="250" overflow="visible"><text stroke="#ffffff" stroke-width="4" font-family="Open Sans" y="59.3" font-size="45pt" fill="#673ab7" font-weight="bold" transform="matrix(0.707, 0.409, 0, 0.816, 0, 0)" xml:space="preserve"><tspan x="8" dy="0">APPLICATION</tspan><tspan x="8" dy="1.1em">     KERNEL</tspan></text><text font-family="Open Sans" y="59.3" font-size="45pt" fill="#673ab7" font-weight="bold" transform="matrix(0.707, 0.409, 0, 0.816, 0, 0)" xml:space="preserve"><tspan x="8" dy="0">APPLICATION</tspan><tspan x="8" dy="1.1em">     KERNEL</tspan></text></svg></g></g><g opacity="1"><g id="c18796e3-5c79-463b-8904-b09424ba8f51" transform="translate(0 0)"><svg x="-384" y="-222" overflow="visible"><text stroke="#ffffff" stroke-width="4" font-family="Open Sans" y="59.3" font-size="45pt" fill="#e91e63" font-weight="bold" transform="matrix(0.707 0.409 -0.707 0.409 0 0)" xml:space="preserve"><tspan x="8" dy="0">GUEST OS</tspan></text><text font-family="Open Sans" y="59.3" font-size="45pt" fill="#e91e63" font-weight="bold" transform="matrix(0.707 0.409 -0.707 0.409 0 0)" xml:space="preserve"><tspan x="8" dy="0">GUEST OS</tspan></text></svg></g></g><g opacity="1"><g id="30121d5e-b603-48e1-9314-5f861cc85ab8" transform="translate(0 0)"><svg x="208" y="453" overflow="visible"><text stroke="#ffffff" stroke-width="4" font-family="Open Sans" y="51.31999999999999" font-size="38pt" fill="#e91e63" font-weight="bold" transform="matrix(0.707 0.409 -0.707 0.409 0 0)" xml:space="preserve"><tspan x="8" dy="0">CONTAINER</tspan></text><text font-family="Open Sans" y="51.31999999999999" font-size="38pt" fill="#e91e63" font-weight="bold" transform="matrix(0.707 0.409 -0.707 0.409 0 0)" xml:space="preserve"><tspan x="8" dy="0">CONTAINER</tspan></text></svg></g></g><g opacity="1"><g id="0293311b-ffd8-4b9e-8192-4bc052b0c117" transform="translate(0 0)"><svg x="464" y="823" overflow="visible"><text stroke="#ffffff" stroke-width="4" font-family="Open Sans" y="71.84" font-size="56pt" fill="#673ab7" font-weight="bold" transform="matrix(0.707, -0.409, 0, 0.816, 0, 0)" xml:space="preserve"><tspan x="8" dy="0">HOST OS</tspan></text><text font-family="Open Sans" y="71.84" font-size="56pt" fill="#673ab7" font-weight="bold" transform="matrix(0.707, -0.409, 0, 0.816, 0, 0)" xml:space="preserve"><tspan x="8" dy="0">HOST OS</tspan></text></svg></g></g><g opacity="1"><g id="9a6392c8-cf97-4804-b7bf-cdc2a7d0b048" transform="translate(0 0)"><svg x="64" y="648" overflow="visible"><text stroke="#ffffff" stroke-width="4" font-family="Open Sans" y="59.3" font-size="45pt" fill="#673ab7" font-weight="bold" transform="matrix(0.707, 0.409, 0, 0.816, 0, 0)" xml:space="preserve"><tspan x="8" dy="0">APPLICATION</tspan><tspan x="8" dy="1.1em">     KERNEL</tspan></text><text font-family="Open Sans" y="59.3" font-size="45pt" fill="#673ab7" font-weight="bold" transform="matrix(0.707, 0.409, 0, 0.816, 0, 0)" xml:space="preserve"><tspan x="8" dy="0">APPLICATION</tspan><tspan x="8" dy="1.1em">     KERNEL</tspan></text></svg></g></g><g opacity="1"><g id="14e348b1-158f-4670-9bb7-3d5499fefff3" transform="translate(0 0)"><svg x="-544" y="-18" overflow="visible"><text stroke="#ffffff" stroke-width="4" font-family="Open Sans" y="46.76" font-size="34pt" fill="#e91e63" font-weight="bold" transform="matrix(0.707, 0.409, 0, 0.816, 0, 0)" xml:space="preserve"><tspan x="8" dy="0">APPLICATION</tspan><tspan x="8" dy="1.1em">     </tspan><tspan x="8" dy="1.1em"> </tspan><tspan x="8" dy="1.1em">    KERNEL</tspan></text><text font-family="Open Sans" y="46.76" font-size="34pt" fill="#e91e63" font-weight="bold" transform="matrix(0.707, 0.409, 0, 0.816, 0, 0)" xml:space="preserve"><tspan x="8" dy="0">APPLICATION</tspan><tspan x="8" dy="1.1em">     </tspan><tspan x="8" dy="1.1em"> </tspan><tspan x="8" dy="1.1em">    KERNEL</tspan></text></svg></g></g><g opacity="1"><g id="540feeb9-44a4-42ec-ad22-05c25ea30982" transform="translate(0 0)"><svg x="304" y="398" overflow="visible"><text stroke="#ffffff" stroke-width="4" font-family="Open Sans" y="51.31999999999999" font-size="38pt" fill="#e91e63" font-weight="bold" transform="matrix(0.707 0.409 -0.707 0.409 0 0)" xml:space="preserve"><tspan x="8" dy="0">CONTAINER</tspan></text><text font-family="Open Sans" y="51.31999999999999" font-size="38pt" fill="#e91e63" font-weight="bold" transform="matrix(0.707 0.409 -0.707 0.409 0 0)" xml:space="preserve"><tspan x="8" dy="0">CONTAINER</tspan></text></svg></g></g><g opacity="1"><g id="e0ceadc5-4bd8-4d69-ad07-4493bd34ce82" transform="translate(0 0)"><svg x="144" y="527" overflow="visible"><text stroke="#ffffff" stroke-width="4" font-family="Open Sans" y="46.76" font-size="34pt" fill="#e91e63" font-weight="bold" transform="matrix(0.707, 0.409, 0, 0.816, 0, 0)" xml:space="preserve"><tspan x="8" dy="0">APPLICATION</tspan></text><text font-family="Open Sans" y="46.76" font-size="34pt" fill="#e91e63" font-weight="bold" transform="matrix(0.707, 0.409, 0, 0.816, 0, 0)" xml:space="preserve"><tspan x="8" dy="0">APPLICATION</tspan></text></svg></g></g></g><g/></g></svg>