<?xml version="1.0" encoding="utf-8"?>
<svg xmlns="http://www.w3.org/2000/svg" xmlns:xlink="http://www.w3.org/1999/xlink" width="600" height="400" viewBox="0 0 2400 1600">
<defs>
  <clipPath id="clip9700">
    <rect x="0" y="0" width="2000" height="2000"/>
  </clipPath>
</defs>
<defs>
  <clipPath id="clip9701">
    <rect x="0" y="0" width="2400" height="1600"/>
  </clipPath>
</defs>
<polygon clip-path="url(#clip9701)" points="
0,1600 2400,1600 2400,0 0,0 
  " fill="#ffffff" fill-rule="evenodd" fill-opacity="1"/>
<defs>
  <clipPath id="clip9702">
    <rect x="480" y="0" width="1681" height="1600"/>
  </clipPath>
</defs>
<polygon clip-path="url(#clip9701)" points="
189.504,1503.47 2321.26,1503.47 2321.26,47.2441 189.504,47.2441 
  " fill="#ffffff" fill-rule="evenodd" fill-opacity="1"/>
<defs>
  <clipPath id="clip9703">
    <rect x="189" y="47" width="2133" height="1457"/>
  </clipPath>
</defs>
<polyline clip-path="url(#clip9703)" style="stroke:#000000; stroke-width:2; stroke-opacity:0.1; fill:none" points="
  229.523,1503.47 229.523,47.2441 
  "/>
<polyline clip-path="url(#clip9703)" style="stroke:#000000; stroke-width:2; stroke-opacity:0.1; fill:none" points="
  737.374,1503.47 737.374,47.2441 
  "/>
<polyline clip-path="url(#clip9703)" style="stroke:#000000; stroke-width:2; stroke-opacity:0.1; fill:none" points="
  1245.22,1503.47 1245.22,47.2441 
  "/>
<polyline clip-path="url(#clip9703)" style="stroke:#000000; stroke-width:2; stroke-opacity:0.1; fill:none" points="
  1753.08,1503.47 1753.08,47.2441 
  "/>
<polyline clip-path="url(#clip9703)" style="stroke:#000000; stroke-width:2; stroke-opacity:0.1; fill:none" points="
  2260.93,1503.47 2260.93,47.2441 
  "/>
<polyline clip-path="url(#clip9703)" style="stroke:#000000; stroke-width:2; stroke-opacity:0.1; fill:none" points="
  189.504,1462.47 2321.26,1462.47 
  "/>
<polyline clip-path="url(#clip9703)" style="stroke:#000000; stroke-width:2; stroke-opacity:0.1; fill:none" points="
  189.504,1118.94 2321.26,1118.94 
  "/>
<polyline clip-path="url(#clip9703)" style="stroke:#000000; stroke-width:2; stroke-opacity:0.1; fill:none" points="
  189.504,775.416 2321.26,775.416 
  "/>
<polyline clip-path="url(#clip9703)" style="stroke:#000000; stroke-width:2; stroke-opacity:0.1; fill:none" points="
  189.504,431.889 2321.26,431.889 
  "/>
<polyline clip-path="url(#clip9703)" style="stroke:#000000; stroke-width:2; stroke-opacity:0.1; fill:none" points="
  189.504,88.361 2321.26,88.361 
  "/>
<polyline clip-path="url(#clip9701)" style="stroke:#000000; stroke-width:4; stroke-opacity:1; fill:none" points="
  189.504,1503.47 2321.26,1503.47 
  "/>
<polyline clip-path="url(#clip9701)" style="stroke:#000000; stroke-width:4; stroke-opacity:1; fill:none" points="
  189.504,1503.47 189.504,47.2441 
  "/>
<polyline clip-path="url(#clip9701)" style="stroke:#000000; stroke-width:4; stroke-opacity:1; fill:none" points="
  229.523,1503.47 229.523,1481.63 
  "/>
<polyline clip-path="url(#clip9701)" style="stroke:#000000; stroke-width:4; stroke-opacity:1; fill:none" points="
  737.374,1503.47 737.374,1481.63 
  "/>
<polyline clip-path="url(#clip9701)" style="stroke:#000000; stroke-width:4; stroke-opacity:1; fill:none" points="
  1245.22,1503.47 1245.22,1481.63 
  "/>
<polyline clip-path="url(#clip9701)" style="stroke:#000000; stroke-width:4; stroke-opacity:1; fill:none" points="
  1753.08,1503.47 1753.08,1481.63 
  "/>
<polyline clip-path="url(#clip9701)" style="stroke:#000000; stroke-width:4; stroke-opacity:1; fill:none" points="
  2260.93,1503.47 2260.93,1481.63 
  "/>
<polyline clip-path="url(#clip9701)" style="stroke:#000000; stroke-width:4; stroke-opacity:1; fill:none" points="
  189.504,1462.47 221.48,1462.47 
  "/>
<polyline clip-path="url(#clip9701)" style="stroke:#000000; stroke-width:4; stroke-opacity:1; fill:none" points="
  189.504,1118.94 221.48,1118.94 
  "/>
<polyline clip-path="url(#clip9701)" style="stroke:#000000; stroke-width:4; stroke-opacity:1; fill:none" points="
  189.504,775.416 221.48,775.416 
  "/>
<polyline clip-path="url(#clip9701)" style="stroke:#000000; stroke-width:4; stroke-opacity:1; fill:none" points="
  189.504,431.889 221.48,431.889 
  "/>
<polyline clip-path="url(#clip9701)" style="stroke:#000000; stroke-width:4; stroke-opacity:1; fill:none" points="
  189.504,88.361 221.48,88.361 
  "/>
<g clip-path="url(#clip9701)">
<text style="fill:#000000; fill-opacity:1; font-family:Arial,Helvetica Neue,Helvetica,sans-serif; font-size:48px; text-anchor:middle;" transform="rotate(0, 229.523, 1557.47)" x="229.523" y="1557.47">0</text>
</g>
<g clip-path="url(#clip9701)">
<text style="fill:#000000; fill-opacity:1; font-family:Arial,Helvetica Neue,Helvetica,sans-serif; font-size:48px; text-anchor:middle;" transform="rotate(0, 737.374, 1557.47)" x="737.374" y="1557.47">25</text>
</g>
<g clip-path="url(#clip9701)">
<text style="fill:#000000; fill-opacity:1; font-family:Arial,Helvetica Neue,Helvetica,sans-serif; font-size:48px; text-anchor:middle;" transform="rotate(0, 1245.22, 1557.47)" x="1245.22" y="1557.47">50</text>
</g>
<g clip-path="url(#clip9701)">
<text style="fill:#000000; fill-opacity:1; font-family:Arial,Helvetica Neue,Helvetica,sans-serif; font-size:48px; text-anchor:middle;" transform="rotate(0, 1753.08, 1557.47)" x="1753.08" y="1557.47">75</text>
</g>
<g clip-path="url(#clip9701)">
<text style="fill:#000000; fill-opacity:1; font-family:Arial,Helvetica Neue,Helvetica,sans-serif; font-size:48px; text-anchor:middle;" transform="rotate(0, 2260.93, 1557.47)" x="2260.93" y="1557.47">100</text>
</g>
<g clip-path="url(#clip9701)">
<text style="fill:#000000; fill-opacity:1; font-family:Arial,Helvetica Neue,Helvetica,sans-serif; font-size:48px; text-anchor:end;" transform="rotate(0, 165.504, 1479.97)" x="165.504" y="1479.97">-1.0</text>
</g>
<g clip-path="url(#clip9701)">
<text style="fill:#000000; fill-opacity:1; font-family:Arial,Helvetica Neue,Helvetica,sans-serif; font-size:48px; text-anchor:end;" transform="rotate(0, 165.504, 1136.44)" x="165.504" y="1136.44">-0.5</text>
</g>
<g clip-path="url(#clip9701)">
<text style="fill:#000000; fill-opacity:1; font-family:Arial,Helvetica Neue,Helvetica,sans-serif; font-size:48px; text-anchor:end;" transform="rotate(0, 165.504, 792.916)" x="165.504" y="792.916">0.0</text>
</g>
<g clip-path="url(#clip9701)">
<text style="fill:#000000; fill-opacity:1; font-family:Arial,Helvetica Neue,Helvetica,sans-serif; font-size:48px; text-anchor:end;" transform="rotate(0, 165.504, 449.389)" x="165.504" y="449.389">0.5</text>
</g>
<g clip-path="url(#clip9701)">
<text style="fill:#000000; fill-opacity:1; font-family:Arial,Helvetica Neue,Helvetica,sans-serif; font-size:48px; text-anchor:end;" transform="rotate(0, 165.504, 105.861)" x="165.504" y="105.861">1.0</text>
</g>
<polyline clip-path="url(#clip9703)" style="stroke:#009af9; stroke-width:4; stroke-opacity:1; fill:none" points="
  249.837,91.7935 270.151,102.056 290.465,119.047 310.779,142.597 331.093,172.469 351.407,208.365 371.721,249.927 392.035,296.74 412.349,348.336 432.663,404.199 
  452.977,463.771 473.291,526.456 493.605,591.63 513.919,658.639 534.233,726.816 554.547,795.478 574.862,863.94 595.176,931.517 615.49,997.534 635.804,1061.33 
  656.118,1122.27 676.432,1179.75 696.746,1233.18 717.06,1282.05 737.374,1325.85 757.688,1364.15 778.002,1396.56 798.316,1422.78 818.63,1442.52 838.944,1455.6 
  859.258,1461.88 879.572,1461.3 899.886,1453.87 920.2,1439.66 940.514,1418.81 960.828,1391.54 981.142,1358.11 1001.46,1318.85 1021.77,1274.17 1042.08,1224.51 
  1062.4,1170.35 1082.71,1112.25 1103.03,1050.79 1123.34,986.571 1143.65,920.245 1163.97,852.471 1184.28,783.928 1204.6,715.3 1224.91,647.272 1245.22,580.525 
  1265.54,515.725 1285.85,453.519 1306.17,394.53 1326.48,339.347 1346.8,288.521 1367.11,242.56 1387.42,201.922 1407.74,167.015 1428.05,138.187 1448.37,115.726 
  1468.68,99.8566 1488.99,90.7368 1509.31,88.4582 1529.62,93.0434 1549.94,104.447 1570.25,122.554 1590.56,147.185 1610.88,178.092 1631.19,214.968 1651.51,257.444 
  1671.82,305.095 1692.13,357.445 1712.45,413.972 1732.76,474.11 1753.08,537.259 1773.39,602.787 1793.7,670.04 1814.02,738.346 1834.33,807.022 1854.65,875.383 
  1874.96,942.745 1895.27,1008.43 1915.59,1071.8 1935.9,1132.2 1956.22,1189.03 1976.53,1241.73 1996.84,1289.78 2017.16,1332.68 2037.47,1370.02 2057.79,1401.41 
  2078.1,1426.55 2098.41,1445.19 2118.73,1457.13 2139.04,1462.26 2159.36,1460.53 2179.67,1451.95 2199.99,1436.61 2220.3,1414.67 2240.61,1386.34 2260.93,1351.9 
  
  "/>
<polygon clip-path="url(#clip9701)" points="
1958.43,251.724 2249.26,251.724 2249.26,130.764 1958.43,130.764 
  " fill="#ffffff" fill-rule="evenodd" fill-opacity="1"/>
<polyline clip-path="url(#clip9701)" style="stroke:#000000; stroke-width:4; stroke-opacity:1; fill:none" points="
  1958.43,251.724 2249.26,251.724 2249.26,130.764 1958.43,130.764 1958.43,251.724 
  "/>
<polyline clip-path="url(#clip9701)" style="stroke:#009af9; stroke-width:4; stroke-opacity:1; fill:none" points="
  1982.43,191.244 2126.43,191.244 
  "/>
<g clip-path="url(#clip9701)">
<text style="fill:#000000; fill-opacity:1; font-family:Arial,Helvetica Neue,Helvetica,sans-serif; font-size:48px; text-anchor:start;" transform="rotate(0, 2150.43, 208.744)" x="2150.43" y="208.744">y1</text>
</g>
</svg>
